<?xml version="1.0" encoding="UTF-8" standalone="no"?>
<svg
   width="417.58572"
   zoomAndPan="magnify"
   viewBox="0 0 313.18929 188.36813"
   height="251.15752"
   preserveAspectRatio="xMidYMid"
   version="1.2"
   id="svg60"
   xmlns="http://www.w3.org/2000/svg"
   xmlns:svg="http://www.w3.org/2000/svg">
  <defs
     id="defs1" />
  <g
     id="5600ee26aa"
     style="display:inline"
     transform="translate(-30.876005,-100.14918)">
    <g
       id="g63" />
    <g
       id="g65">
      <g
         id="g64"
         transform="translate(21.426206,2.7607362)"
         style="display:inline">
        <path
           id="path3"
           style="display:inline;fill:#ffffff;fill-opacity:0.7;stroke:none;stroke-width:1"
           d="m 37.079894,97.388439 v 4.047361 h 20.266115 l 36.36182,61.10742 H 120.86895 L 84.454412,101.4358 h 23.312978 v -4.047361 z m 104.641106,0 v 4.047361 h 24.57714 l -33.58006,61.10742 h 6.56249 l 33.61232,-61.10742 h 20.51512 v -4.047361 z m -35.21922,96.479001 v 69.73974 H 82.173656 v 4.04736 h 73.234854 v -4.04736 h -24.32812 v -69.73974 z" />
        <path
           id="path2"
           style="display:inline;fill:#ffffff;fill-opacity:0.7;stroke:none;stroke-width:1"
           d="m 227.10177,97.388439 v 4.045891 h 21.70313 v 61.46776 h 24.48484 V 101.43433 H 295.009 v -4.045891 z m 21.70313,96.837871 v 68.77148 h -21.70313 v 4.04592 H 295.009 v -4.04592 h -21.71926 v -68.77148 z" />
      </g>
      <g
         id="g61"
         style="display:inline"
         transform="translate(0,-1.5)">
        <path
           style="fill:#ffffff;fill-opacity:0.7;stroke:none"
           d="M 8.21875,-4.859375 V 0 H 5.046875 v -4.90625 l -5.328125,-8.828125 h 3.375 L 6.765625,-7.625 10.4375,-13.734375 h 3.109375 z m 0,0"
           id="path6"
           transform="translate(31.157256,188.91202)" />
        <g
           style="fill:#ffffff;fill-opacity:0.7"
           id="g10">
          <g
             transform="translate(51.197647,188.91202)"
             id="g9">
            <path
               style="stroke:none"
               d="m 7.71875,0.234375 c -1.960938,0 -3.484375,-0.539063 -4.578125,-1.625 -1.085937,-1.082031 -1.625,-2.632813 -1.625,-4.65625 v -7.6875 H 4.6875 v 7.578125 c 0,2.460938 1.019531,3.6875 3.0625,3.6875 0.988281,0 1.742188,-0.296875 2.265625,-0.890625 0.53125,-0.59375 0.796875,-1.523437 0.796875,-2.796875 v -7.578125 h 3.125 v 7.6875 c 0,2.023437 -0.546875,3.574219 -1.640625,4.65625 -1.085937,1.085937 -2.609375,1.625 -4.578125,1.625 z m 0,0"
               id="path8" />
          </g>
        </g>
        <g
           style="fill:#ffffff;fill-opacity:0.7"
           id="g12">
          <g
             transform="translate(73.434207,188.91202)"
             id="g11">
            <path
               style="stroke:none"
               d="M 14.828125,-13.734375 8.890625,0 H 5.75 L -0.171875,-13.734375 H 3.25 l 4.1875,9.8125 4.234375,-9.8125 z m 0,0"
               id="path10" />
          </g>
        </g>
        <g
           style="display:inline;fill:#ffffff;fill-opacity:0.7"
           id="g14">
          <g
             transform="translate(94.847206,188.91202)"
             id="g13">
            <path
               style="stroke:none"
               d="m 10.671875,-2.9375 h -6.375 L 3.078125,0 h -3.25 L 5.9375,-13.734375 H 9.078125 L 15.21875,0 h -3.328125 z m -1,-2.421875 -2.1875,-5.25 -2.171875,5.25 z m 0,0"
               id="path12" />
          </g>
        </g>
        <g
           style="fill:#ffffff;fill-opacity:0.7"
           id="g18">
          <g
             transform="translate(128.98657,188.91202)"
             id="g17">
            <path
               style="stroke:none"
               d="M 1.625,-13.734375 H 4.796875 V 0 H 1.625 Z m 0,0"
               id="path16" />
          </g>
        </g>
        <g
           style="fill:#ffffff;fill-opacity:0.7"
           id="g20">
          <g
             transform="translate(142.20317,188.91202)"
             id="g19">
            <path
               style="stroke:none"
               d="M 14.21875,-13.734375 V 0 H 11.609375 L 4.765625,-8.328125 V 0 H 1.625 V -13.734375 H 4.25 l 6.828125,8.34375 v -8.34375 z m 0,0"
               id="path18" />
          </g>
        </g>
        <g
           style="fill:#ffffff;fill-opacity:0.7"
           id="g22">
          <g
             transform="translate(164.83191,188.91202)"
             id="g21">
            <path
               style="stroke:none"
               d="M 14.21875,-13.734375 V 0 H 11.609375 L 4.765625,-8.328125 V 0 H 1.625 V -13.734375 H 4.25 l 6.828125,8.34375 v -8.34375 z m 0,0"
               id="path20" />
          </g>
        </g>
        <g
           style="fill:#ffffff;fill-opacity:0.7"
           id="g24">
          <g
             transform="translate(187.46066,188.91202)"
             id="g23">
            <path
               style="stroke:none"
               d="m 8.28125,0.234375 c -1.429688,0 -2.714844,-0.3046875 -3.859375,-0.921875 -1.148437,-0.613281 -2.042969,-1.457031 -2.6875,-2.53125 -0.648437,-1.082031 -0.96875,-2.296875 -0.96875,-3.640625 0,-1.351563 0.320313,-2.566406 0.96875,-3.640625 0.644531,-1.082031 1.539063,-1.929688 2.6875,-2.546875 1.144531,-0.613281 2.429687,-0.921875 3.859375,-0.921875 1.414062,0 2.691406,0.308594 3.828125,0.921875 1.144531,0.617187 2.039063,1.464844 2.6875,2.546875 0.65625,1.074219 0.984375,2.289062 0.984375,3.640625 0,1.34375 -0.328125,2.558594 -0.984375,3.640625 -0.648437,1.074219 -1.542969,1.917969 -2.6875,2.53125 -1.136719,0.6171875 -2.414063,0.921875 -3.828125,0.921875 z m 0,-2.703125 c 0.800781,0 1.53125,-0.1875 2.1875,-0.5625 0.65625,-0.375 1.164062,-0.894531 1.53125,-1.5625 0.375,-0.664062 0.5625,-1.421875 0.5625,-2.265625 0,-0.851563 -0.1875,-1.613281 -0.5625,-2.28125 -0.367188,-0.664063 -0.875,-1.179687 -1.53125,-1.546875 -0.65625,-0.375 -1.386719,-0.5625 -2.1875,-0.5625 -0.8125,0 -1.546875,0.1875 -2.203125,0.5625 -0.65625,0.367188 -1.171875,0.882812 -1.546875,1.546875 -0.367188,0.667969 -0.546875,1.429687 -0.546875,2.28125 0,0.84375 0.179687,1.601563 0.546875,2.265625 0.375,0.667969 0.890625,1.1875 1.546875,1.5625 0.65625,0.375 1.390625,0.5625 2.203125,0.5625 z m 0,0"
               id="path22" />
          </g>
        </g>
        <g
           style="fill:#ffffff;fill-opacity:0.7"
           id="g26">
          <g
             transform="translate(210.79531,188.91202)"
             id="g25">
            <path
               style="stroke:none"
               d="M 14.828125,-13.734375 8.890625,0 H 5.75 L -0.171875,-13.734375 H 3.25 l 4.1875,9.8125 4.234375,-9.8125 z m 0,0"
               id="path24" />
          </g>
        </g>
        <g
           style="fill:#ffffff;fill-opacity:0.7"
           id="g28">
          <g
             transform="translate(232.20831,188.91202)"
             id="g27">
            <path
               style="stroke:none"
               d="m 10.671875,-2.9375 h -6.375 L 3.078125,0 h -3.25 L 5.9375,-13.734375 H 9.078125 L 15.21875,0 h -3.328125 z m -1,-2.421875 -2.1875,-5.25 -2.171875,5.25 z m 0,0"
               id="path26" />
          </g>
        </g>
        <g
           style="fill:#ffffff;fill-opacity:0.7"
           id="g30">
          <g
             transform="translate(254.01348,188.91202)"
             id="g29">
            <path
               style="stroke:none"
               d="M 4.46875,-11.140625 H 0.078125 v -2.59375 h 11.96875 v 2.59375 H 7.640625 V 0 H 4.46875 Z m 0,0"
               id="path28" />
          </g>
        </g>
        <g
           style="fill:#ffffff;fill-opacity:0.7"
           id="g32">
          <g
             transform="translate(272.91657,188.91202)"
             id="g31">
            <path
               style="stroke:none"
               d="M 1.625,-13.734375 H 4.796875 V 0 H 1.625 Z m 0,0"
               id="path30" />
          </g>
        </g>
        <g
           style="fill:#ffffff;fill-opacity:0.7"
           id="g34">
          <g
             transform="translate(286.13317,188.91202)"
             id="g33">
            <path
               style="stroke:none"
               d="m 8.28125,0.234375 c -1.429688,0 -2.714844,-0.3046875 -3.859375,-0.921875 -1.148437,-0.613281 -2.042969,-1.457031 -2.6875,-2.53125 -0.648437,-1.082031 -0.96875,-2.296875 -0.96875,-3.640625 0,-1.351563 0.320313,-2.566406 0.96875,-3.640625 0.644531,-1.082031 1.539063,-1.929688 2.6875,-2.546875 1.144531,-0.613281 2.429687,-0.921875 3.859375,-0.921875 1.414062,0 2.691406,0.308594 3.828125,0.921875 1.144531,0.617187 2.039063,1.464844 2.6875,2.546875 0.65625,1.074219 0.984375,2.289062 0.984375,3.640625 0,1.34375 -0.328125,2.558594 -0.984375,3.640625 -0.648437,1.074219 -1.542969,1.917969 -2.6875,2.53125 -1.136719,0.6171875 -2.414063,0.921875 -3.828125,0.921875 z m 0,-2.703125 c 0.800781,0 1.53125,-0.1875 2.1875,-0.5625 0.65625,-0.375 1.164062,-0.894531 1.53125,-1.5625 0.375,-0.664062 0.5625,-1.421875 0.5625,-2.265625 0,-0.851563 -0.1875,-1.613281 -0.5625,-2.28125 -0.367188,-0.664063 -0.875,-1.179687 -1.53125,-1.546875 -0.65625,-0.375 -1.386719,-0.5625 -2.1875,-0.5625 -0.8125,0 -1.546875,0.1875 -2.203125,0.5625 -0.65625,0.367188 -1.171875,0.882812 -1.546875,1.546875 -0.367188,0.667969 -0.546875,1.429687 -0.546875,2.28125 0,0.84375 0.179687,1.601563 0.546875,2.265625 0.375,0.667969 0.890625,1.1875 1.546875,1.5625 0.65625,0.375 1.390625,0.5625 2.203125,0.5625 z m 0,0"
               id="path32" />
          </g>
        </g>
        <g
           style="fill:#ffffff;fill-opacity:0.7"
           id="g36">
          <g
             transform="translate(309.4678,188.91202)"
             id="g35">
            <path
               style="stroke:none"
               d="M 14.21875,-13.734375 V 0 H 11.609375 L 4.765625,-8.328125 V 0 H 1.625 V -13.734375 H 4.25 l 6.828125,8.34375 v -8.34375 z m 0,0"
               id="path34" />
          </g>
        </g>
        <g
           style="fill:#ffffff;fill-opacity:0.7"
           id="g38">
          <g
             transform="translate(332.09655,188.91202)"
             id="g37">
            <path
               style="stroke:none"
               d="m 6.140625,0.234375 c -1.085937,0 -2.136719,-0.1484375 -3.15625,-0.4375 -1.011719,-0.289063 -1.824219,-0.675781 -2.4375,-1.15625 L 1.625,-3.75 c 0.59375,0.4375 1.289062,0.789062 2.09375,1.046875 0.8125,0.261719 1.625,0.390625 2.4375,0.390625 0.90625,0 1.570312,-0.132812 2,-0.40625 0.425781,-0.269531 0.640625,-0.625 0.640625,-1.0625 0,-0.332031 -0.125,-0.601562 -0.375,-0.8125 -0.25,-0.21875 -0.578125,-0.390625 -0.984375,-0.515625 -0.398438,-0.132813 -0.933594,-0.28125 -1.609375,-0.4375 -1.054687,-0.25 -1.914063,-0.5 -2.578125,-0.75 -0.667969,-0.25 -1.242188,-0.644531 -1.71875,-1.1875 C 1.0625,-8.035156 0.828125,-8.769531 0.828125,-9.6875 c 0,-0.800781 0.210937,-1.523438 0.640625,-2.171875 0.4375,-0.644531 1.085938,-1.15625 1.953125,-1.53125 0.863281,-0.382813 1.925781,-0.578125 3.1875,-0.578125 0.875,0 1.726563,0.109375 2.5625,0.328125 0.84375,0.210937 1.578125,0.507813 2.203125,0.890625 l -0.984375,2.421875 c -1.273437,-0.71875 -2.539063,-1.078125 -3.796875,-1.078125 -0.898438,0 -1.558594,0.148438 -1.984375,0.4375 -0.417969,0.28125 -0.625,0.65625 -0.625,1.125 0,0.46875 0.242187,0.820312 0.734375,1.046875 0.488281,0.230469 1.238281,0.453125 2.25,0.671875 1.039062,0.25 1.894531,0.5 2.5625,0.75 0.664062,0.25 1.238281,0.648438 1.71875,1.1875 0.476562,0.53125 0.71875,1.257812 0.71875,2.171875 0,0.78125 -0.226562,1.496094 -0.671875,2.140625 -0.4375,0.648438 -1.09375,1.164062 -1.96875,1.546875 -0.875,0.375 -1.9375,0.5625 -3.1875,0.5625 z m 0,0"
               id="path36" />
          </g>
        </g>
      </g>
    </g>
    <g
       id="g66"
       transform="translate(0.656248)">
      <g
         style="fill:#ffffff;fill-opacity:0.7"
         id="g40">
        <g
           transform="translate(123.01655,288.34545)"
           id="g39">
          <path
             style="stroke:none"
             d="M 8.703125,-1.8125 V 0 H 1.15625 v -9.75 h 7.375 v 1.8125 h -5.125 v 2.109375 H 7.9375 V -4.0625 H 3.40625 v 2.25 z m 0,0"
             id="path38" />
        </g>
      </g>
      <g
         style="fill:#ffffff;fill-opacity:0.7"
         id="g42">
        <g
           transform="translate(136.03393,288.34545)"
           id="g41">
          <path
             style="stroke:none"
             d="M 10.109375,-9.75 V 0 H 8.25 L 3.390625,-5.921875 V 0 H 1.15625 v -9.75 h 1.875 L 7.875,-3.828125 V -9.75 Z m 0,0"
             id="path40" />
        </g>
      </g>
      <g
         style="fill:#ffffff;fill-opacity:0.7"
         id="g44">
        <g
           transform="translate(150.96026,288.34545)"
           id="g43">
          <path
             style="stroke:none"
             d="M 7.375,0 5.484375,-2.71875 h -2.0625 V 0 H 1.15625 V -9.75 H 5.375 c 0.863281,0 1.613281,0.148438 2.25,0.4375 0.632812,0.28125 1.125,0.6875 1.46875,1.21875 0.34375,0.53125 0.515625,1.15625 0.515625,1.875 0,0.730469 -0.171875,1.359375 -0.515625,1.890625 -0.34375,0.523437 -0.839844,0.917969 -1.484375,1.1875 L 9.796875,0 Z M 7.328125,-6.21875 c 0,-0.539062 -0.179687,-0.957031 -0.53125,-1.25 C 6.441406,-7.769531 5.925781,-7.921875 5.25,-7.921875 H 3.421875 v 3.40625 H 5.25 c 0.675781,0 1.191406,-0.144531 1.546875,-0.4375 0.351563,-0.300781 0.53125,-0.722656 0.53125,-1.265625 z m 0,0"
             id="path42" />
        </g>
      </g>
      <g
         style="fill:#ffffff;fill-opacity:0.7"
         id="g46">
        <g
           transform="translate(164.86941,288.34545)"
           id="g45">
          <path
             style="stroke:none"
             d="M 1.15625,-9.75 H 3.421875 V 0 H 1.15625 Z m 0,0"
             id="path44" />
        </g>
      </g>
      <g
         style="fill:#ffffff;fill-opacity:0.7"
         id="g48">
        <g
           transform="translate(173.1074,288.34545)"
           id="g47">
          <path
             style="stroke:none"
             d=""
             id="path46" />
        </g>
      </g>
      <g
         style="fill:#ffffff;fill-opacity:0.7"
         id="g50">
        <g
           transform="translate(180.71835,288.34545)"
           id="g49">
          <path
             style="stroke:none"
             d="M 8.703125,-1.8125 V 0 H 1.15625 v -9.75 h 7.375 v 1.8125 h -5.125 v 2.109375 H 7.9375 V -4.0625 H 3.40625 v 2.25 z m 0,0"
             id="path48" />
        </g>
      </g>
      <g
         style="fill:#ffffff;fill-opacity:0.7"
         id="g52">
        <g
           transform="translate(193.73573,288.34545)"
           id="g51">
          <path
             style="stroke:none"
             d="m 1.15625,-9.75 h 4.4375 c 1.050781,0 1.984375,0.203125 2.796875,0.609375 0.8125,0.398437 1.441406,0.964844 1.890625,1.703125 0.457031,0.730469 0.6875,1.585938 0.6875,2.5625 0,0.96875 -0.230469,1.824219 -0.6875,2.5625 C 9.832031,-1.582031 9.203125,-1.015625 8.390625,-0.609375 7.578125,-0.203125 6.644531,0 5.59375,0 h -4.4375 z m 4.328125,7.890625 c 0.96875,0 1.742187,-0.269531 2.328125,-0.8125 0.582031,-0.539063 0.875,-1.273437 0.875,-2.203125 0,-0.925781 -0.292969,-1.660156 -0.875,-2.203125 C 7.226562,-7.628906 6.453125,-7.90625 5.484375,-7.90625 h -2.0625 v 6.046875 z m 0,0"
             id="path50" />
        </g>
      </g>
      <g
         style="fill:#ffffff;fill-opacity:0.7"
         id="g54">
        <g
           transform="translate(208.91287,288.34545)"
           id="g53">
          <path
             style="stroke:none"
             d="M 1.15625,-9.75 H 3.421875 V 0 H 1.15625 Z m 0,0"
             id="path52" />
        </g>
      </g>
      <g
         style="fill:#ffffff;fill-opacity:0.7"
         id="g56">
        <g
           transform="translate(217.15086,288.34545)"
           id="g55">
          <path
             style="stroke:none"
             d="M 3.171875,-7.921875 H 0.0625 V -9.75 h 8.5 v 1.828125 H 5.4375 V 0 H 3.171875 Z m 0,0"
             id="path54" />
        </g>
      </g>
      <g
         style="display:inline;fill:#ffffff;fill-opacity:0.7"
         id="g58">
        <g
           transform="translate(229.42972,288.34545)"
           id="g57">
          <path
             style="stroke:none"
             d="M 4.359375,0.171875 C 3.585938,0.171875 2.84375,0.0664062 2.125,-0.140625 1.40625,-0.347656 0.828125,-0.625 0.390625,-0.96875 l 0.765625,-1.6875 c 0.414062,0.304688 0.910156,0.546875 1.484375,0.734375 0.582031,0.1875 1.160156,0.28125 1.734375,0.28125 0.644531,0 1.117188,-0.09375 1.421875,-0.28125 0.3125,-0.195313 0.46875,-0.453125 0.46875,-0.765625 0,-0.226562 -0.09375,-0.421875 -0.28125,-0.578125 -0.179687,-0.15625 -0.414063,-0.28125 -0.703125,-0.375 C 5,-3.734375 4.617188,-3.832031 4.140625,-3.9375 3.398438,-4.113281 2.789062,-4.289062 2.3125,-4.46875 1.84375,-4.644531 1.4375,-4.925781 1.09375,-5.3125 0.75,-5.707031 0.578125,-6.234375 0.578125,-6.890625 c 0,-0.5625 0.148437,-1.070313 0.453125,-1.53125 0.3125,-0.457031 0.773438,-0.820313 1.390625,-1.09375 0.625,-0.269531 1.382813,-0.40625 2.28125,-0.40625 0.613281,0 1.21875,0.074219 1.8125,0.21875 0.601563,0.148437 1.125,0.359375 1.5625,0.640625 l -0.6875,1.71875 C 6.484375,-7.851562 5.582031,-8.109375 4.6875,-8.109375 c -0.636719,0 -1.105469,0.105469 -1.40625,0.3125 C 2.976562,-7.597656 2.828125,-7.332031 2.828125,-7 c 0,0.335938 0.171875,0.585938 0.515625,0.75 0.351562,0.167969 0.890625,0.328125 1.609375,0.484375 0.738281,0.179687 1.34375,0.355469 1.8125,0.53125 0.476563,0.179687 0.882813,0.460937 1.21875,0.84375 0.34375,0.375 0.515625,0.886719 0.515625,1.53125 0,0.5625 -0.15625,1.074219 -0.46875,1.53125 C 7.71875,-0.867188 7.25,-0.503906 6.625,-0.234375 6.007812,0.0351562 5.253906,0.171875 4.359375,0.171875 Z m 0,0"
             id="path56" />
        </g>
      </g>
      <g
         style="display:inline;fill:#ffffff;fill-opacity:0.7"
         id="g60">
        <g
           transform="translate(241.98726,288.34545)"
           id="g59">
          <path
             style="stroke:none"
             d="m 3.03125,-3.390625 c 0,-0.476563 0.101562,-0.875 0.3125,-1.1875 C 3.5625,-4.898438 3.882812,-5.25 4.3125,-5.625 c 0.300781,-0.28125 0.523438,-0.515625 0.671875,-0.703125 0.144531,-0.195313 0.21875,-0.414063 0.21875,-0.65625 0,-0.34375 -0.140625,-0.613281 -0.421875,-0.8125 C 4.507812,-7.992188 4.144531,-8.09375 3.6875,-8.09375 3.25,-8.09375 2.859375,-8 2.515625,-7.8125 c -0.335937,0.179688 -0.617187,0.429688 -0.84375,0.75 l -1.6875,-1 c 0.394531,-0.59375 0.921875,-1.050781 1.578125,-1.375 0.664062,-0.320312 1.457031,-0.484375 2.375,-0.484375 1.0625,0 1.914062,0.230469 2.5625,0.6875 0.644531,0.449219 0.96875,1.078125 0.96875,1.890625 0,0.375 -0.0625,0.710938 -0.1875,1 C 7.15625,-6.050781 7,-5.804688 6.8125,-5.609375 c -0.179688,0.199219 -0.40625,0.429687 -0.6875,0.6875 -0.34375,0.3125 -0.601562,0.574219 -0.765625,0.78125 -0.15625,0.210937 -0.234375,0.460937 -0.234375,0.75 z m 1.046875,3.5 C 3.703125,0.109375 3.382812,-0.0078125 3.125,-0.25 2.875,-0.5 2.75,-0.800781 2.75,-1.15625 c 0,-0.351562 0.125,-0.644531 0.375,-0.875 0.25,-0.238281 0.566406,-0.359375 0.953125,-0.359375 0.394531,0 0.71875,0.121094 0.96875,0.359375 0.25,0.230469 0.375,0.523438 0.375,0.875 0,0.355469 -0.132813,0.65625 -0.390625,0.90625 -0.25,0.2421875 -0.570312,0.359375 -0.953125,0.359375 z m 0,0"
             id="path58" />
        </g>
      </g>
    </g>
  </g>
</svg>
